<svg id="visual" viewBox="0 0 6000 600" width="6000" height="600" xmlns="http://www.w3.org/2000/svg" xmlns:xlink="http://www.w3.org/1999/xlink" version="1.1"><path d="M0 422L142.8 422C285.7 422 571.3 422 857 416.7C1142.7 411.3 1428.3 400.7 1714 402.8C1999.7 405 2285.3 420 2571.2 427.2C2857 434.3 3143 433.7 3428.8 427.7C3714.7 421.7 4000.3 410.3 4286 401.7C4571.7 393 4857.3 387 5143 389.3C5428.7 391.7 5714.3 402.3 5857.2 407.7L6000 413L6000 601L5857.2 601C5714.3 601 5428.7 601 5143 601C4857.3 601 4571.7 601 4286 601C4000.3 601 3714.7 601 3428.8 601C3143 601 2857 601 2571.2 601C2285.3 601 1999.7 601 1714 601C1428.3 601 1142.7 601 857 601C571.3 601 285.7 601 142.8 601L0 601Z" fill="#394867"></path><path d="M0 404L142.8 413C285.7 422 571.3 440 857 451.2C1142.7 462.3 1428.3 466.7 1714 468.8C1999.7 471 2285.3 471 2571.2 468.5C2857 466 3143 461 3428.8 457.2C3714.7 453.3 4000.3 450.7 4286 444.5C4571.7 438.3 4857.3 428.7 5143 426.2C5428.7 423.7 5714.3 428.3 5857.2 430.7L6000 433L6000 601L5857.2 601C5714.3 601 5428.7 601 5143 601C4857.3 601 4571.7 601 4286 601C4000.3 601 3714.7 601 3428.8 601C3143 601 2857 601 2571.2 601C2285.3 601 1999.7 601 1714 601C1428.3 601 1142.7 601 857 601C571.3 601 285.7 601 142.8 601L0 601Z" fill="#505e7a"></path><path d="M0 444L142.8 454.8C285.7 465.7 571.3 487.3 857 490.3C1142.7 493.3 1428.3 477.7 1714 472C1999.7 466.3 2285.3 470.7 2571.2 474.7C2857 478.7 3143 482.3 3428.8 482C3714.7 481.7 4000.3 477.3 4286 476.5C4571.7 475.7 4857.3 478.3 5143 482.5C5428.7 486.7 5714.3 492.3 5857.2 495.2L6000 498L6000 601L5857.2 601C5714.3 601 5428.7 601 5143 601C4857.3 601 4571.7 601 4286 601C4000.3 601 3714.7 601 3428.8 601C3143 601 2857 601 2571.2 601C2285.3 601 1999.7 601 1714 601C1428.3 601 1142.7 601 857 601C571.3 601 285.7 601 142.8 601L0 601Z" fill="#68748d"></path><path d="M0 533L142.8 533.2C285.7 533.3 571.3 533.7 857 530.7C1142.7 527.7 1428.3 521.3 1714 516.7C1999.7 512 2285.3 509 2571.2 504.7C2857 500.3 3143 494.7 3428.8 491C3714.7 487.3 4000.3 485.7 4286 492.5C4571.7 499.3 4857.3 514.7 5143 518.3C5428.7 522 5714.3 514 5857.2 510L6000 506L6000 601L5857.2 601C5714.3 601 5428.7 601 5143 601C4857.3 601 4571.7 601 4286 601C4000.3 601 3714.7 601 3428.8 601C3143 601 2857 601 2571.2 601C2285.3 601 1999.7 601 1714 601C1428.3 601 1142.7 601 857 601C571.3 601 285.7 601 142.8 601L0 601Z" fill="#818ca1"></path><path d="M0 539L142.8 540.3C285.7 541.7 571.3 544.3 857 549.2C1142.7 554 1428.3 561 1714 561.2C1999.7 561.3 2285.3 554.7 2571.2 550.8C2857 547 3143 546 3428.8 542.2C3714.7 538.3 4000.3 531.7 4286 535.5C4571.7 539.3 4857.3 553.7 5143 555.5C5428.7 557.3 5714.3 546.7 5857.2 541.3L6000 536L6000 601L5857.2 601C5714.3 601 5428.7 601 5143 601C4857.3 601 4571.7 601 4286 601C4000.3 601 3714.7 601 3428.8 601C3143 601 2857 601 2571.2 601C2285.3 601 1999.7 601 1714 601C1428.3 601 1142.7 601 857 601C571.3 601 285.7 601 142.8 601L0 601Z" fill="#9ba4b5"></path></svg>