<svg id="visual" viewBox="0 0 6000 600" width="6000" height="600" xmlns="http://www.w3.org/2000/svg" xmlns:xlink="http://www.w3.org/1999/xlink" version="1.1"><rect x="0" y="0" width="6000" height="600" fill="#140021"></rect><path d="M0 344L857 344L857 267L1714 267L1714 307L2571 307L2571 298L3429 298L3429 322L4286 322L4286 327L5143 327L5143 304L6000 304L6000 297L6000 601L6000 601L5143 601L5143 601L4286 601L4286 601L3429 601L3429 601L2571 601L2571 601L1714 601L1714 601L857 601L857 601L0 601Z" fill="#9900ff"></path><path d="M0 440L857 440L857 368L1714 368L1714 410L2571 410L2571 462L3429 462L3429 346L4286 346L4286 425L5143 425L5143 400L6000 400L6000 385L6000 601L6000 601L5143 601L5143 601L4286 601L4286 601L3429 601L3429 601L2571 601L2571 601L1714 601L1714 601L857 601L857 601L0 601Z" fill="#7700c6"></path><path d="M0 448L857 448L857 481L1714 481L1714 446L2571 446L2571 471L3429 471L3429 478L4286 478L4286 477L5143 477L5143 460L6000 460L6000 498L6000 601L6000 601L5143 601L5143 601L4286 601L4286 601L3429 601L3429 601L2571 601L2571 601L1714 601L1714 601L857 601L857 601L0 601Z" fill="#560090"></path></svg>